<?xml version="1.0" standalone="no"?>
<!DOCTYPE svg PUBLIC "-//W3C//DTD SVG 20010904//EN"
 "http://www.w3.org/TR/2001/REC-SVG-20010904/DTD/svg10.dtd">
<svg version="1.0" xmlns="http://www.w3.org/2000/svg"
 width="425.000000pt" height="425.000000pt" viewBox="0 0 425.000000 425.000000"
 preserveAspectRatio="xMidYMid meet">
<metadata>
Created by potrace 1.15, written by Peter Selinger 2001-2017
</metadata>
<g transform="translate(0.000000,425.000000) scale(0.100000,-0.100000)"
fill="#000000" stroke="none">
<path d="M1502 3973 c-43 -16 -131 -136 -167 -228 -36 -91 -40 -190 -14 -299
l19 -79 -45 -160 c-42 -149 -86 -354 -101 -472 -3 -27 -8 -59 -10 -70 -3 -11
-5 -63 -5 -115 0 -105 14 -160 57 -215 14 -19 24 -35 20 -35 -13 0 132 -131
199 -179 38 -28 65 -51 59 -51 -6 0 -28 -11 -47 -25 -35 -23 -38 -23 -73 -9
-30 13 -42 13 -66 3 -28 -11 -58 -54 -58 -82 0 -8 -18 -22 -41 -32 -63 -29
-105 -101 -75 -131 14 -14 15 -12 11 13 -9 47 33 101 92 118 18 5 22 1 26 -22
2 -15 5 -2 6 29 1 48 5 60 27 77 53 42 111 13 133 -65 15 -55 14 -60 -19 -84
-34 -24 -40 -60 -12 -81 14 -11 15 -11 5 1 -23 25 -15 58 17 75 16 8 39 15 52
15 17 0 19 3 9 9 -10 7 -10 10 -1 16 12 8 32 -13 24 -26 -2 -4 3 -12 11 -19 7
-6 21 -33 30 -60 14 -42 14 -53 2 -82 -7 -18 -14 -55 -16 -83 -2 -58 -27 -151
-41 -160 -12 -8 -13 -25 -2 -25 5 0 14 10 20 23 10 20 11 19 11 -13 3 -152
-107 -209 -212 -111 l-28 26 23 6 23 7 -23 1 c-29 1 -122 92 -150 147 -11 21
-30 47 -41 56 -26 22 -27 41 -2 33 11 -3 22 -1 26 4 3 6 0 9 -7 6 -13 -5 -68
71 -68 94 0 7 -5 9 -10 6 -7 -4 -5 -14 5 -28 13 -19 13 -23 -4 -42 -28 -31
-31 -60 -9 -97 33 -53 63 -64 77 -26 l8 22 13 -24 c7 -14 24 -41 39 -60 22
-30 26 -45 27 -105 0 -38 1 -303 3 -589 1 -285 5 -525 8 -532 3 -8 12 -14 19
-14 20 0 88 -35 103 -54 7 -8 12 -33 13 -56 0 -36 5 -44 37 -64 54 -33 110
-58 123 -54 7 3 -14 15 -45 27 -111 45 -104 25 -105 298 -1 131 -4 337 -7 458
l-6 220 27 -49 c20 -38 28 -46 36 -35 7 11 8 9 4 -6 -4 -13 5 -33 28 -60 32
-38 37 -40 90 -39 38 0 61 5 74 17 22 20 19 48 42 -388 6 -126 15 -279 20
-340 15 -185 2 252 -15 541 -9 137 -15 274 -15 304 2 80 -18 374 -30 453 -5
37 -21 95 -35 128 -22 54 -23 66 -13 113 l10 54 44 -87 c24 -48 58 -107 77
-131 l34 -45 7 -284 c5 -156 10 -289 12 -295 4 -11 161 -11 193 0 12 4 13 54
7 325 l-7 321 53 -7 c29 -4 54 -8 56 -10 1 -1 7 -119 12 -261 6 -143 15 -376
20 -519 6 -143 13 -360 17 -483 5 -183 9 -222 20 -222 12 0 14 20 9 118 -3 64
-11 254 -16 422 -6 168 -15 408 -20 535 -6 126 -10 271 -10 321 l0 92 53 5
c175 19 177 20 177 4 0 -17 -47 -60 -91 -83 -20 -10 -29 -22 -29 -38 0 -29 16
-36 79 -36 l48 0 7 -142 c3 -79 11 -255 17 -393 6 -137 16 -373 22 -524 10
-218 15 -275 26 -279 11 -4 13 12 7 94 -3 55 -11 207 -16 339 -6 132 -17 388
-25 569 -8 181 -12 333 -10 337 3 3 15 9 29 11 22 4 24 1 29 -44 3 -26 11
-144 18 -261 9 -169 15 -215 27 -224 10 -8 46 -13 93 -13 64 0 80 -3 89 -18
12 -20 5 348 -11 512 -5 54 -9 124 -9 156 0 56 1 58 61 124 34 37 65 64 70 59
4 -4 9 -31 10 -59 2 -44 -2 -57 -28 -90 -16 -22 -33 -44 -37 -51 -3 -7 3 -65
13 -130 27 -156 53 -456 45 -510 -4 -31 -2 -50 9 -67 20 -29 37 -294 37 -557
0 -119 4 -179 11 -179 19 0 -2 608 -28 799 -6 42 -5 43 15 32 11 -6 38 -11 60
-11 46 0 93 39 122 103 l17 39 7 -54 c3 -29 17 -201 31 -383 14 -181 30 -351
36 -378 13 -57 -1 -86 -58 -120 -20 -11 -31 -23 -25 -25 12 -4 68 32 90 58 9
10 11 34 7 78 -5 58 -4 64 20 86 14 13 39 29 56 36 30 13 30 14 24 69 -20 186
-25 289 -29 596 -4 277 -8 341 -26 465 -6 46 -5 58 13 81 18 25 21 26 35 12
14 -14 18 -13 39 13 28 36 38 82 27 132 -4 20 -7 53 -5 73 2 27 -4 43 -24 65
l-26 29 21 -35 c11 -19 20 -44 20 -55 0 -27 -47 -95 -65 -95 -20 0 -19 16 6
60 17 30 19 41 10 56 -11 18 -12 17 -6 -3 3 -13 -2 -34 -15 -55 -11 -18 -20
-41 -20 -50 0 -27 36 -22 60 9 17 22 23 25 30 13 16 -25 11 -83 -10 -117 -32
-53 -53 -38 -30 22 7 17 7 24 0 20 -6 -3 -10 -11 -10 -17 0 -18 -70 -107 -106
-134 -18 -14 -54 -29 -81 -34 l-48 -9 43 2 c23 2 42 0 42 -4 0 -23 -32 -103
-50 -126 -65 -84 -128 -66 -171 48 -20 51 -39 209 -26 209 4 0 18 -21 31 -47
35 -67 32 -48 -4 28 -18 40 -34 95 -40 144 -6 44 -13 97 -17 118 -7 47 11 91
43 106 38 17 55 14 87 -16 25 -23 28 -24 19 -7 -6 12 -19 24 -28 28 -18 7 -16
18 10 79 9 20 14 37 11 37 -3 0 -13 -16 -21 -35 l-15 -36 -42 26 c-23 15 -54
31 -69 37 -36 13 -35 24 5 44 17 9 53 32 78 50 26 19 52 34 58 34 6 0 11 3 11
8 0 4 17 18 37 32 79 54 135 130 153 210 22 100 25 133 25 305 -1 219 -30 393
-112 665 l-25 85 22 63 c27 76 24 128 -16 285 -42 168 -88 231 -146 201 -40
-21 -54 -73 -38 -143 7 -31 17 -65 23 -76 10 -19 10 -19 -19 0 -303 199 -641
265 -949 184 -85 -22 -201 -66 -278 -106 -29 -15 -55 -26 -59 -25 -5 1 -8 -3
-8 -8 0 -5 -4 -10 -9 -10 -6 0 -1 25 10 57 30 88 20 170 -19 156z m22 -40 c7
-23 -4 -68 -37 -160 -22 -60 -24 -72 -11 -77 20 -8 54 -84 54 -123 0 -18 5
-33 10 -33 28 0 -6 144 -39 164 -22 14 -9 26 97 79 120 61 265 111 374 128
114 18 334 6 439 -24 104 -29 224 -80 323 -137 l74 -42 -25 -36 c-19 -29 -23
-46 -21 -91 2 -30 8 -56 14 -58 8 -3 10 12 6 45 -5 61 19 119 54 128 17 4 22
10 16 18 -14 17 -32 100 -32 142 0 39 30 84 56 84 35 0 80 -97 114 -243 25
-109 25 -189 1 -243 -50 -110 -162 -112 -186 -4 -7 34 -25 40 -25 10 0 -42 27
-86 63 -103 45 -22 55 -21 94 3 l33 19 30 -97 c74 -239 104 -427 104 -652 1
-289 -26 -367 -166 -477 -71 -56 -249 -163 -271 -163 -8 0 -17 -8 -20 -17 -5
-21 -259 -156 -283 -151 -11 2 15 36 82 108 176 190 250 279 302 366 53 90
131 287 164 419 37 146 12 339 -64 488 -39 79 -129 186 -196 237 -136 101
-252 130 -537 133 -180 1 -206 -1 -262 -20 -126 -42 -221 -125 -275 -240 -36
-76 -91 -293 -114 -444 -23 -156 -15 -368 15 -456 64 -180 187 -310 381 -401
111 -52 213 -116 254 -161 l30 -31 -50 0 c-43 0 -57 6 -109 45 -73 55 -179
111 -310 164 -54 22 -123 57 -154 78 -31 20 -74 48 -95 62 -61 40 -159 143
-191 203 -30 52 -30 55 -29 198 2 194 44 423 129 706 l25 81 51 5 c54 6 91 32
104 76 9 32 -7 26 -30 -11 -23 -37 -84 -59 -113 -40 -47 29 -61 234 -24 336
25 69 67 137 117 190 40 41 51 45 59 20z m1028 -618 c6 0 28 -34 49 -75 21
-41 38 -69 39 -62 0 6 6 12 14 12 8 0 17 -6 19 -12 3 -8 6 -6 6 5 1 19 16 23
26 7 8 -14 34 11 28 27 -3 7 0 13 6 13 14 0 41 -60 48 -108 5 -26 3 -34 -7
-30 -8 2 -22 -4 -32 -14 -14 -14 -16 -27 -11 -63 5 -37 3 -45 -10 -45 -9 0
-19 11 -23 25 -3 14 -12 25 -20 25 -7 0 -22 17 -33 39 -11 21 -26 41 -33 44
-19 7 -131 235 -122 249 5 8 13 4 27 -13 10 -13 24 -24 29 -24z m-292 19 c17
-9 43 -16 56 -16 26 0 54 -31 54 -59 0 -13 -10 -16 -53 -16 l-54 0 -12 45
c-18 68 -24 44 -6 -29 30 -131 8 -187 -37 -94 -22 46 -32 53 -43 35 -5 -8 -11
-7 -21 1 -11 9 -14 8 -14 -5 0 -20 -36 -21 -44 -1 -3 8 -12 15 -20 15 -8 0
-22 8 -32 17 -17 17 -17 16 -10 -22 3 -22 9 -78 13 -125 7 -85 7 -85 19 -45
l11 40 11 -40 c16 -56 42 -210 43 -254 1 -30 3 -26 9 18 5 30 6 61 2 69 -3 9
-1 13 5 9 6 -4 14 -34 18 -67 7 -64 25 -73 25 -13 0 41 9 37 27 -10 l11 -32 1
33 c1 39 17 34 26 -8 9 -41 22 -38 32 8 10 47 10 248 0 331 -4 35 -4 61 0 58
4 -4 21 -65 39 -135 l32 -127 4 85 3 85 19 -77 c11 -43 24 -74 29 -71 12 7 2
264 -12 311 -6 20 -6 30 0 26 12 -7 86 -154 110 -219 l19 -50 -3 73 c-1 39 1
72 4 72 10 0 37 -85 69 -213 23 -92 25 -107 11 -102 -55 22 -109 27 -161 16
-64 -14 -125 -39 -97 -40 15 -1 16 -4 6 -23 -10 -19 -9 -20 7 -13 66 28 120
36 171 25 78 -17 92 -32 103 -120 5 -41 10 -122 10 -180 0 -104 0 -106 -36
-158 -66 -99 -204 -182 -347 -209 -77 -14 -79 -14 -185 16 -129 36 -247 88
-296 131 -21 19 -34 25 -30 16 10 -27 82 -70 196 -117 l108 -44 0 -53 0 -53
-44 -20 -45 -19 -85 39 c-212 98 -359 271 -395 466 -17 89 -13 88 22 -5 31
-80 83 -170 109 -186 8 -5 9 5 5 36 l-6 44 37 -66 c53 -93 60 -104 67 -97 3 4
-1 24 -9 45 -8 22 -20 66 -26 99 -6 33 -14 69 -16 80 -5 17 -3 18 6 5 10 -12
11 -12 5 5 -30 82 -36 125 -40 260 -5 150 -5 150 10 86 8 -35 12 -68 9 -72 -3
-5 -1 -9 5 -9 5 0 13 -9 16 -21 6 -19 10 -17 50 20 54 50 93 70 149 77 40 6
101 -3 150 -22 12 -5 15 -2 10 11 -4 9 -2 20 5 24 7 5 -13 15 -48 26 -77 23
-165 16 -230 -18 l-47 -24 -12 96 c-14 111 -15 367 -2 336 l9 -20 -1 20 c0 11
-3 31 -7 45 -7 24 -7 24 -14 -9 -4 -18 -7 -56 -7 -83 0 -58 -23 -118 -44 -118
-9 0 -16 5 -16 11 0 7 -10 5 -25 -5 -32 -21 -42 -20 -55 4 -12 22 5 110 22
110 5 0 12 8 16 18 17 39 48 82 59 82 6 0 15 -10 19 -22 6 -20 8 -19 21 15 15
37 36 48 47 25 5 -10 7 -10 12 0 7 14 34 17 34 3 0 -21 -33 -137 -42 -148 -11
-14 20 -163 34 -163 4 0 8 58 8 128 0 139 6 158 46 140 17 -8 27 -8 38 1 11 9
20 10 35 2 17 -10 24 -5 52 34 18 25 36 45 40 45 5 0 15 -21 23 -47 11 -36 15
-42 15 -22 1 27 25 46 36 28 4 -5 10 -7 15 -4 5 3 12 0 15 -5 5 -7 12 -5 20 7
7 10 17 15 21 10 4 -4 16 0 26 9 17 16 19 14 44 -40 14 -32 28 -55 30 -53 3 2
1 30 -4 61 -8 47 -7 66 3 66 1 0 17 -7 35 -16z m506 -702 c57 1 104 2 104 0 0
-1 -18 -51 -40 -111 -42 -114 -73 -176 -114 -226 l-24 -30 3 128 c3 144 -9
178 -19 56 -4 -44 -9 -79 -10 -77 -2 1 -6 68 -9 148 -3 80 -3 137 0 127 4 -17
15 -18 109 -15z m-1200 -112 c19 -63 33 -131 31 -150 l-2 -35 -31 55 c-30 52
-73 161 -88 223 -6 27 -5 28 25 25 32 -3 32 -4 65 -118z m1076 -248 c7 3 18
20 25 39 l13 34 -4 -52 c-3 -32 -1 -53 5 -53 17 0 -7 -33 -96 -134 -47 -53
-94 -96 -103 -96 -9 0 -38 8 -64 17 l-48 17 0 50 0 51 58 30 c31 16 88 61 127
100 l70 70 3 -38 c2 -23 8 -37 14 -35z m-282 -187 l0 -55 60 -17 59 -18 -40
-42 -41 -41 -31 35 c-40 45 -124 93 -164 93 -18 0 -66 -18 -109 -40 -46 -24
-85 -38 -96 -34 -27 8 -22 17 22 36 40 16 40 17 40 72 0 63 -2 61 79 45 45 -9
70 -9 126 4 101 22 95 24 95 -38z m-775 -150 c42 -63 80 -115 85 -115 14 0 12
12 -5 37 -17 24 -10 53 11 53 20 0 168 -75 182 -93 10 -11 4 -20 -28 -46 -22
-18 -40 -36 -40 -42 0 -22 85 -49 157 -49 39 0 74 -4 77 -9 6 -9 -146 -160
-207 -206 l-38 -28 -25 29 c-37 44 -106 163 -127 219 -29 78 -50 126 -79 180
-21 41 -30 50 -50 47 -21 -2 -26 5 -40 47 l-16 49 27 20 c14 12 29 21 33 21 4
1 42 -51 83 -114z m699 57 c26 -15 59 -41 73 -59 l25 -32 -29 -36 c-28 -35
-29 -35 -105 -35 -66 0 -79 3 -91 20 -8 12 -38 38 -67 60 l-52 38 28 19 c47
31 128 61 149 56 11 -3 42 -17 69 -31z m506 -64 c59 -36 74 -58 40 -58 -58 0
-96 -65 -85 -144 7 -43 6 -45 -53 -108 -34 -35 -77 -85 -98 -112 l-36 -48 -78
78 c-43 43 -85 90 -94 106 l-17 28 79 0 c73 0 83 3 123 31 24 18 45 32 46 33
1 1 4 13 8 27 5 22 2 28 -24 39 -26 10 -29 15 -19 27 10 13 14 12 26 -4 13
-17 14 -17 30 4 9 12 32 47 50 77 18 31 37 56 41 56 4 0 31 -15 61 -32z m-260
-166 c0 -76 11 -74 -323 -66 l-297 7 -6 33 c-12 67 -27 64 316 64 l310 0 0
-38z m-130 -172 l32 -40 -59 0 c-32 0 -143 -3 -248 -6 l-190 -6 39 41 40 40
125 4 c69 1 149 4 178 5 49 2 53 0 83 -38z m-785 -219 c7 -53 16 -166 19 -251
l6 -155 -20 54 c-11 29 -44 103 -73 162 -47 95 -52 111 -39 122 26 21 42 73
49 164 l6 88 20 -44 c10 -24 25 -87 32 -140z m882 119 c30 -27 58 -50 63 -50
5 0 18 12 29 27 12 14 23 24 25 22 2 -2 9 -139 15 -304 7 -165 14 -312 17
-326 4 -22 1 -28 -22 -33 -15 -4 -56 -4 -91 0 -61 6 -63 7 -63 34 0 40 -38
574 -45 633 -4 32 -2 47 6 47 6 0 36 -22 66 -50z m-549 -309 l5 -311 -64 0
c-35 0 -74 -3 -85 -6 -21 -6 -22 -2 -28 88 -3 51 -7 179 -10 285 -3 161 -2
191 10 186 8 -3 42 17 76 46 54 44 65 49 77 37 11 -12 15 -76 19 -325z m1203
-261 c7 -341 20 -589 33 -625 2 -6 -18 -23 -45 -38 l-49 -27 -4 23 c-6 30 -56
682 -56 730 0 21 20 98 45 173 25 74 45 149 45 167 1 29 2 30 12 12 8 -14 14
-145 19 -415z m-1891 372 c0 -24 45 -152 70 -202 20 -39 21 -61 26 -343 2
-166 6 -359 8 -429 l4 -126 -48 24 c-26 13 -53 24 -59 24 -8 0 -11 132 -11
463 0 255 -3 499 -7 542 -5 58 -3 76 5 71 7 -4 12 -15 12 -24z m1763 -219
c-48 -141 -82 -207 -116 -224 -19 -10 -20 -10 -10 2 6 8 14 50 17 94 4 44 9
105 12 136 l6 55 35 1 c26 1 44 10 67 32 17 17 31 31 32 31 0 0 -19 -57 -43
-127z"/>
</g>
</svg>
